<svg xmlns="http://www.w3.org/2000/svg" width="120" height="120" viewBox="0 0 120 120" role="img" aria-label="Toastmasters companion logo"><defs><linearGradient id="g" x1="0" x2="1" y1="0" y2="1"><stop offset="0%" stop-color="#772432"/><stop offset="100%" stop-color="#c5423b"/></linearGradient></defs><circle cx="60" cy="60" r="56" fill="url(#g)" stroke="#fff" stroke-width="4"/><path fill="#fff" d="M60 30c-9.5 0-17.2 7.7-17.2 17.2v6.6H30v32c0 2.2 1.8 4 4 4h52c2.2 0 4-1.8 4-4v-32H77.2v-6.6C77.2 37.7 69.5 30 60 30Zm0 8c5.1 0 9.2 4.1 9.2 9.2v6.6H50.8v-6.6c0-5.1 4.1-9.2 9.2-9.2Zm0 20c6.7 0 12.2 5.5 12.2 12.2S66.7 82.4 60 82.4 47.8 76.9 47.8 70.2 53.3 58 60 58Zm0 8a4.2 4.2 0 1 0 0 8.4 4.2 4.2 0 0 0 0-8.4Z"/></svg>
