<svg xmlns="http://www.w3.org/2000/svg" viewBox="0 0 512 512" role="img" aria-label="Toastmasters Companion maskable logo"><defs><linearGradient id="g" x1="0" x2="1" y1="0" y2="1"><stop offset="0%" stop-color="#772432"/><stop offset="100%" stop-color="#c5423b"/></linearGradient><mask id="m"><rect width="512" height="512" rx="110" ry="110" fill="#fff"/></mask></defs><g mask="url(#m)"><rect width="512" height="512" fill="url(#g)"/><circle cx="256" cy="256" r="230" fill="none" stroke="#fff" stroke-width="28"/><path fill="#fff" d="M256 140c-39 0-70.7 31.7-70.7 70.7v27.1H140v131c0 9 7.3 16.3 16.3 16.3h199.4c9 0 16.3-7.3 16.3-16.3v-131h-45.3v-27.1c0-39-31.7-70.7-70.7-70.7Zm0 32.9c21 0 37.8 16.9 37.8 37.8v27.1h-75.6v-27.1c0-21 16.9-37.8 37.8-37.8Zm0 82.1c27.4 0 49.7 22.3 49.7 49.7s-22.3 49.7-49.7 49.7-49.7-22.3-49.7-49.7 22.3-49.7 49.7-49.7Zm0 32.9a16.8 16.8 0 1 0 0 33.6 16.8 16.8 0 0 0 0-33.6Z"/></g></svg>
